<svg xmlns="http://www.w3.org/2000/svg" width="30.5" height="30.5" viewBox="0 0 30.5 30.5"><path d="M20.969,0H9.531A9.532,9.532,0,0,0,0,9.531V20.969A9.532,9.532,0,0,0,9.531,30.5H20.969A9.532,9.532,0,0,0,30.5,20.969V9.531A9.532,9.532,0,0,0,20.969,0Zm6.672,20.969a6.679,6.679,0,0,1-6.672,6.672H9.531a6.679,6.679,0,0,1-6.672-6.672V9.531A6.679,6.679,0,0,1,9.531,2.859H20.969a6.679,6.679,0,0,1,6.672,6.672Z" fill="#fff"/><g transform="translate(7.625 7.625)"><path d="M135.625,128a7.625,7.625,0,1,0,7.625,7.625A7.625,7.625,0,0,0,135.625,128Zm0,12.391a4.766,4.766,0,1,1,4.766-4.766A4.772,4.772,0,0,1,135.625,140.391Z" transform="translate(-128 -128)" fill="#fff"/></g><g transform="translate(22.431 6.037)"><circle cx="1.016" cy="1.016" r="1.016" fill="#fff"/></g></svg>