<svg xmlns="http://www.w3.org/2000/svg" width="30.921" height="25.123" viewBox="0 0 30.921 25.123"><path d="M30.921,50.974a13.217,13.217,0,0,1-3.653,1,6.3,6.3,0,0,0,2.789-3.5,12.668,12.668,0,0,1-4.02,1.534,6.339,6.339,0,0,0-10.965,4.335,6.527,6.527,0,0,0,.147,1.446A17.943,17.943,0,0,1,2.153,49.156,6.341,6.341,0,0,0,4.1,57.628a6.26,6.26,0,0,1-2.864-.781v.07a6.368,6.368,0,0,0,5.079,6.229,6.327,6.327,0,0,1-1.662.209,5.6,5.6,0,0,1-1.2-.108,6.4,6.4,0,0,0,5.923,4.416,12.737,12.737,0,0,1-7.86,2.7A11.872,11.872,0,0,1,0,70.278a17.846,17.846,0,0,0,9.725,2.845c11.665,0,18.042-9.663,18.042-18.038,0-.28-.01-.551-.023-.819A12.646,12.646,0,0,0,30.921,50.974Z" transform="translate(0 -48)" fill="#fff"/></svg>